<?xml version="1.0" encoding="UTF-8"?>
<svg xmlns="http://www.w3.org/2000/svg" xmlns:xlink="http://www.w3.org/1999/xlink" width="32px" height="32px" viewBox="0 0 32 32" version="1.1">
<g id="surface1">
<path style=" stroke:none;fill-rule:nonzero;fill:rgb(91.764706%,59.215689%,12.941177%);fill-opacity:1;" d="M 14.9375 31.5 C 15.347656 31.621094 15.828125 31.605469 18 31.378906 C 20.382812 31.136719 21.238281 30.851562 23.859375 29.4375 C 26 28.285156 28.714844 25.628906 29.195312 24.21875 C 29.300781 23.90625 29.5 23.550781 29.632812 23.429688 C 29.765625 23.308594 29.875 23.109375 29.875 22.984375 C 29.875 22.765625 30.195312 21.972656 30.589844 21.210938 C 30.699219 21.007812 30.738281 20.726562 30.695312 20.542969 C 30.644531 20.34375 30.703125 20.035156 30.859375 19.707031 C 31.003906 19.398438 31.136719 18.757812 31.183594 18.128906 C 31.230469 17.546875 31.289062 17.042969 31.308594 17.003906 C 31.332031 16.96875 31.296875 16.179688 31.238281 15.25 C 31.136719 13.730469 31.007812 12.953125 30.613281 11.460938 C 30.308594 10.324219 28.800781 7.507812 28.039062 6.65625 C 27.777344 6.367188 27.335938 5.851562 27.0625 5.515625 C 26.789062 5.179688 26.367188 4.773438 26.125 4.609375 C 25.882812 4.449219 25.648438 4.253906 25.597656 4.179688 C 25.550781 4.101562 25.269531 3.878906 24.972656 3.683594 C 24.679688 3.484375 24.324219 3.230469 24.1875 3.113281 C 23.902344 2.871094 21.769531 1.75 21.59375 1.75 C 21.527344 1.75 21.332031 1.636719 21.160156 1.5 C 20.9375 1.328125 20.652344 1.25 20.226562 1.25 C 19.890625 1.25 19.445312 1.164062 19.242188 1.058594 C 19.035156 0.953125 18.546875 0.804688 18.152344 0.734375 C 17.304688 0.578125 17 0.429688 17 0.183594 C 17 0.0898438 16.777344 0.0273438 16.472656 0 L 32 0 L 24.65625 0.0117188 C 20.585938 0.0195312 17.507812 0.0703125 17.75 0.128906 C 17.992188 0.183594 18.609375 0.296875 19.125 0.386719 C 19.640625 0.472656 20.414062 0.699219 20.839844 0.890625 C 21.265625 1.085938 21.769531 1.28125 21.960938 1.328125 C 22.410156 1.441406 23.148438 1.871094 23.339844 2.136719 C 23.425781 2.253906 23.644531 2.386719 23.832031 2.429688 C 24.183594 2.519531 24.394531 2.671875 25.90625 3.957031 C 27.257812 5.105469 29.5 7.804688 29.5 8.285156 C 29.5 8.339844 29.636719 8.585938 29.800781 8.832031 C 29.96875 9.078125 30.3125 9.847656 30.566406 10.546875 C 30.820312 11.242188 31.058594 11.898438 31.097656 12 C 31.683594 13.550781 31.9375 17.476562 31.5625 19.253906 C 30.921875 22.292969 29.550781 24.832031 27.328125 27.101562 C 22.863281 31.660156 16.171875 33.085938 10.203125 30.75 C 4.9375 28.691406 1.253906 24.121094 0.261719 18.414062 L 0.0273438 17.0625 L 0 32 L 0 7.394531 C 0 11.464844 0.0273438 14.761719 0.0625 14.730469 C 0.0976562 14.695312 0.183594 14.207031 0.253906 13.644531 C 0.652344 10.460938 2.308594 7.183594 4.746094 4.746094 C 7.035156 2.457031 9.898438 0.9375 13 0.363281 C 13.445312 0.28125 13.980469 0.171875 14.1875 0.117188 C 14.394531 0.0664062 11.285156 0.015625 7.28125 0.0117188 L 0 0 L 15.515625 0 C 15.144531 0.03125 14.832031 0.101562 14.773438 0.207031 C 14.699219 0.335938 14.453125 0.425781 14.109375 0.453125 C 12.511719 0.578125 11.171875 0.902344 10.609375 1.296875 C 10.449219 1.410156 10.214844 1.5 10.089844 1.5 C 9.777344 1.5 9.144531 1.835938 8.652344 2.265625 C 8.425781 2.464844 8.136719 2.625 8.003906 2.625 C 7.703125 2.625 6.90625 3.125 6.8125 3.375 C 6.773438 3.480469 6.421875 3.761719 6.035156 4 C 5.136719 4.554688 4.671875 5.007812 4.066406 5.902344 C 3.804688 6.296875 3.488281 6.652344 3.367188 6.691406 C 3.246094 6.726562 3.058594 6.953125 2.945312 7.1875 C 2.835938 7.421875 2.6875 7.648438 2.621094 7.691406 C 2.554688 7.730469 2.5 7.898438 2.5 8.066406 C 2.5 8.230469 2.332031 8.558594 2.125 8.792969 C 1.917969 9.027344 1.75 9.289062 1.75 9.371094 C 1.75 9.457031 1.671875 9.671875 1.578125 9.855469 C 1.480469 10.039062 1.230469 10.671875 1.015625 11.261719 C 0.710938 12.101562 0.625 12.542969 0.625 13.261719 C 0.625 14.324219 0.453125 15.070312 0.183594 15.171875 C 0.0507812 15.222656 0 15.441406 0 15.96875 C 0 16.554688 0.0507812 16.738281 0.265625 16.921875 C 0.5 17.121094 0.519531 17.230469 0.449219 17.875 C 0.402344 18.277344 0.417969 18.636719 0.480469 18.671875 C 0.542969 18.710938 0.628906 18.984375 0.671875 19.277344 C 0.769531 19.894531 1.300781 21.53125 1.570312 22.019531 C 1.667969 22.203125 1.75 22.433594 1.75 22.53125 C 1.75 22.628906 1.945312 22.914062 2.1875 23.164062 C 2.425781 23.410156 2.625 23.730469 2.625 23.871094 C 2.625 24.140625 3.109375 25 3.507812 25.4375 C 3.972656 25.949219 4.574219 26.601562 4.964844 27.011719 C 5.875 27.972656 7.769531 29.375 8.152344 29.375 C 8.242188 29.375 8.585938 29.570312 8.921875 29.808594 C 9.253906 30.046875 9.902344 30.371094 10.359375 30.539062 C 10.8125 30.703125 11.382812 30.90625 11.625 30.996094 C 11.867188 31.085938 12.625 31.210938 13.3125 31.273438 C 14 31.335938 14.730469 31.441406 14.9375 31.5 Z M 21.257812 26.832031 C 21.050781 26.929688 10.757812 27 9.375 26.914062 C 8.929688 26.886719 8.515625 26.816406 8.464844 26.761719 C 8.300781 26.601562 8.355469 5.359375 8.515625 5.167969 C 8.675781 4.972656 10.125 4.929688 10.125 5.117188 C 10.125 5.183594 9.828125 5.253906 9.46875 5.273438 C 8.855469 5.308594 8.808594 5.335938 8.734375 5.6875 C 8.628906 6.183594 8.605469 24.816406 8.707031 25.90625 L 8.785156 26.75 L 20.988281 26.75 L 21.304688 26.34375 C 21.691406 25.847656 22.15625 25.226562 23.054688 24 C 23.433594 23.484375 24.195312 22.449219 24.746094 21.703125 C 25.296875 20.953125 25.75 20.292969 25.75 20.234375 C 25.75 20.171875 24.917969 19.238281 23.902344 18.15625 C 22.886719 17.074219 21.933594 16.050781 21.78125 15.890625 C 21.582031 15.667969 21.542969 15.53125 21.625 15.371094 C 21.691406 15.253906 22.417969 14.320312 23.246094 13.296875 C 24.074219 12.273438 24.75 11.410156 24.746094 11.375 C 24.746094 11.316406 22.085938 8.085938 21.394531 7.308594 C 21.210938 7.101562 20.78125 6.597656 20.441406 6.183594 C 20.097656 5.773438 19.761719 5.394531 19.691406 5.347656 C 19.621094 5.296875 17.609375 5.253906 15.21875 5.253906 C 12.40625 5.25 10.875 5.207031 10.875 5.125 C 10.875 5.042969 12.375 5 15.128906 5 C 19.972656 5 20.019531 5.007812 20.683594 6.023438 C 21.109375 6.671875 21.871094 7.609375 22.59375 8.371094 C 22.886719 8.679688 23.125 8.992188 23.125 9.070312 C 23.125 9.144531 23.25 9.324219 23.40625 9.464844 C 23.5625 9.609375 23.828125 9.902344 24 10.117188 C 24.171875 10.332031 24.4375 10.648438 24.59375 10.824219 C 24.75 10.996094 24.875 11.207031 24.875 11.292969 C 24.875 11.5625 24.386719 12.417969 24.082031 12.683594 C 23.671875 13.039062 22.75 14.195312 22.75 14.351562 C 22.75 14.421875 22.554688 14.664062 22.3125 14.890625 C 21.769531 15.402344 21.765625 15.65625 22.28125 16.167969 C 22.503906 16.386719 23.40625 17.316406 24.28125 18.230469 C 26.117188 20.144531 26.1875 20.320312 25.421875 21.085938 C 25.175781 21.332031 24.894531 21.71875 24.800781 21.945312 C 24.707031 22.171875 24.464844 22.535156 24.257812 22.761719 C 24.054688 22.984375 23.675781 23.480469 23.414062 23.863281 C 23.152344 24.25 22.742188 24.824219 22.5 25.144531 C 22.261719 25.46875 21.925781 25.957031 21.757812 26.234375 C 21.59375 26.511719 21.367188 26.78125 21.257812 26.832031 Z M 15.601562 23.464844 C 15.410156 23.695312 12.015625 23.691406 11.929688 23.464844 C 11.894531 23.375 11.882812 22.347656 11.902344 21.183594 L 11.9375 19.0625 L 12.402344 19.0625 C 12.867188 19.0625 12.878906 19.074219 14.300781 21.183594 C 15.367188 22.765625 15.699219 23.347656 15.601562 23.464844 Z M 20.351562 21.496094 C 19.917969 21.910156 19.535156 22.246094 19.5 22.246094 C 19.398438 22.25 16.257812 17.867188 16.253906 17.71875 C 16.25 17.667969 16.839844 17.625 17.5625 17.625 L 18.871094 17.625 L 19.722656 18.78125 C 20.191406 19.417969 20.699219 20.121094 20.855469 20.34375 L 21.140625 20.75 Z M 15.191406 14.367188 C 15.140625 14.449219 14.511719 14.5 13.570312 14.5 C 12.078125 14.5 12.027344 14.492188 11.953125 14.21875 C 11.855469 13.851562 11.851562 11.078125 11.953125 10.824219 C 12.078125 10.492188 12.691406 10.578125 13.019531 10.972656 C 13.664062 11.738281 15.265625 14.246094 15.191406 14.367188 Z M 19.371094 11.890625 C 19.308594 11.945312 19.253906 11.992188 19.203125 12.039062 C 18.90625 12.304688 18.726562 12.464844 18.546875 12.464844 C 18.246094 12.460938 17.941406 12 17.066406 10.804688 C 16.335938 9.804688 15.707031 8.90625 15.667969 8.804688 C 15.609375 8.65625 15.789062 8.625 16.703125 8.625 L 17.8125 8.625 L 18.871094 10.015625 L 19.925781 11.402344 Z M 12.226562 23.15625 C 12.429688 23.394531 12.800781 23.421875 14.167969 23.292969 C 15.101562 23.203125 15.34375 22.992188 14.917969 22.640625 C 14.785156 22.527344 14.605469 22.296875 14.523438 22.125 C 14.4375 21.953125 14.203125 21.585938 13.996094 21.3125 C 13.347656 20.445312 12.929688 19.820312 12.839844 19.589844 C 12.738281 19.324219 12.398438 19.175781 12.246094 19.328125 C 12.183594 19.390625 12.109375 20.230469 12.085938 21.191406 C 12.046875 22.609375 12.074219 22.980469 12.226562 23.15625 Z M 19.09375 21.378906 C 19.539062 21.726562 19.765625 21.6875 20.25 21.1875 L 20.675781 20.746094 L 20.441406 20.34375 C 20.3125 20.121094 20.0625 19.761719 19.886719 19.542969 C 19.707031 19.324219 19.433594 18.960938 19.273438 18.730469 C 19.117188 18.5 18.921875 18.21875 18.835938 18.101562 C 18.695312 17.898438 18.300781 17.835938 17.40625 17.863281 C 17.078125 17.871094 17 17.925781 17 18.140625 C 17 18.445312 18.0625 20.125 18.253906 20.125 C 18.320312 20.125 18.46875 20.351562 18.578125 20.628906 C 18.6875 20.902344 18.921875 21.242188 19.09375 21.378906 Z M 12.375 14.128906 C 12.589844 14.265625 13.53125 14.289062 14.109375 14.171875 C 14.355469 14.121094 14.5 14.019531 14.496094 13.890625 C 14.496094 13.628906 13.789062 12.5 13.625 12.5 C 13.558594 12.5 13.332031 12.160156 13.121094 11.742188 C 12.808594 11.121094 12.6875 10.992188 12.460938 11.023438 C 12.195312 11.0625 12.1875 11.113281 12.1875 12.535156 C 12.1875 13.710938 12.226562 14.035156 12.375 14.128906 Z M 18.40625 12.042969 C 18.667969 12.148438 18.691406 12.136719 19.058594 11.753906 L 19.417969 11.378906 L 19.175781 10.917969 C 19.046875 10.664062 18.597656 10.109375 18.183594 9.683594 C 17.550781 9.042969 17.339844 8.902344 16.890625 8.84375 C 16.285156 8.761719 16.136719 8.921875 16.382812 9.394531 C 16.636719 9.878906 18.242188 11.976562 18.40625 12.042969 Z M 18.40625 12.042969 "/>
<path style=" stroke:none;fill-rule:nonzero;fill:rgb(94.509804%,76.47059%,47.843137%);fill-opacity:1;" d="M 18.105469 0.0898438 L 18.8125 0.265625 C 21.109375 0.835938 22.058594 1.148438 23.0625 1.667969 C 27.523438 3.972656 30.570312 7.953125 31.59375 12.8125 C 31.859375 14.058594 31.886719 17.804688 31.640625 18.9375 C 31.578125 19.234375 31.507812 19.523438 31.433594 19.808594 C 31.480469 19.625 31.523438 19.441406 31.5625 19.253906 C 31.9375 17.476562 31.683594 13.550781 31.097656 12 C 31.058594 11.898438 30.820312 11.242188 30.566406 10.546875 C 30.3125 9.847656 29.96875 9.078125 29.800781 8.832031 C 29.636719 8.585938 29.5 8.339844 29.5 8.285156 C 29.5 7.804688 27.257812 5.105469 25.90625 3.957031 C 24.394531 2.671875 24.183594 2.519531 23.832031 2.429688 C 23.644531 2.386719 23.425781 2.253906 23.339844 2.136719 C 23.148438 1.871094 22.410156 1.441406 21.960938 1.328125 C 21.769531 1.28125 21.265625 1.085938 20.839844 0.890625 C 20.414062 0.699219 19.640625 0.472656 19.125 0.386719 C 18.609375 0.296875 17.992188 0.183594 17.75 0.128906 C 17.691406 0.113281 17.820312 0.101562 18.105469 0.0898438 Z M 0 7.394531 L 0 0 L 0.00390625 7.28125 C 0.0078125 12.304688 0.0507812 14.457031 0.164062 14.285156 C 0.121094 14.535156 0.0820312 14.707031 0.0625 14.730469 C 0.0273438 14.761719 0 11.464844 0 7.394531 Z M 2.234375 8.007812 C 2.429688 7.660156 2.636719 7.324219 2.847656 7 C 3.363281 6.226562 4.011719 5.460938 4.746094 4.742188 L 4.746094 4.746094 C 3.773438 5.71875 2.925781 6.824219 2.234375 8.007812 Z M 8.316406 2.046875 C 9.1875 1.550781 10.074219 1.152344 10.921875 0.890625 C 11.152344 0.816406 11.386719 0.75 11.621094 0.683594 C 10.472656 1.007812 9.363281 1.464844 8.316406 2.046875 Z M 0.0273438 17.0625 L 0.160156 17.835938 C 0.109375 17.574219 0.0664062 17.402344 0.0507812 17.386719 C 0.0429688 17.375 0.03125 17.804688 0.0234375 18.554688 Z M 12.046875 0.570312 C 12.664062 0.414062 13.222656 0.292969 13.535156 0.261719 C 13.359375 0.296875 13.171875 0.332031 13 0.363281 C 12.679688 0.421875 12.363281 0.492188 12.046875 0.570312 Z M 0.316406 13.214844 C 0.390625 12.667969 0.53125 12.054688 0.734375 11.417969 C 0.550781 12.015625 0.414062 12.617188 0.316406 13.214844 Z M 29.398438 24.542969 C 28.816406 25.441406 28.132812 26.289062 27.332031 27.101562 C 26.832031 27.613281 26.300781 28.082031 25.75 28.515625 C 26.300781 28.082031 26.828125 27.613281 27.328125 27.101562 C 28.128906 26.289062 28.816406 25.4375 29.398438 24.542969 Z M 14.035156 0.152344 C 14.046875 0.144531 14.054688 0.136719 14.0625 0.125 C 14.070312 0.109375 14 0.0976562 13.847656 0.0820312 C 14.113281 0.09375 14.234375 0.105469 14.1875 0.117188 C 14.148438 0.128906 14.097656 0.140625 14.035156 0.152344 Z M 14.035156 0.152344 "/>
<path style=" stroke:none;fill-rule:nonzero;fill:rgb(99.215686%,56.862748%,0.784314%);fill-opacity:1;" d="M 14.9375 31.5 C 14.730469 31.441406 14 31.335938 13.3125 31.273438 C 12.625 31.210938 11.867188 31.085938 11.625 30.996094 C 11.382812 30.90625 10.8125 30.703125 10.359375 30.539062 C 9.902344 30.371094 9.253906 30.046875 8.921875 29.808594 C 8.585938 29.570312 8.242188 29.375 8.152344 29.375 C 7.769531 29.375 5.875 27.972656 4.964844 27.011719 C 4.574219 26.601562 3.972656 25.949219 3.507812 25.4375 C 3.109375 25 2.625 24.140625 2.625 23.871094 C 2.625 23.730469 2.425781 23.410156 2.1875 23.164062 C 1.945312 22.914062 1.75 22.628906 1.75 22.53125 C 1.75 22.433594 1.667969 22.203125 1.570312 22.019531 C 1.300781 21.53125 0.769531 19.894531 0.671875 19.277344 C 0.628906 18.984375 0.542969 18.710938 0.480469 18.671875 C 0.417969 18.636719 0.402344 18.277344 0.449219 17.875 C 0.519531 17.230469 0.5 17.121094 0.265625 16.921875 C 0.0507812 16.738281 0 16.554688 0 15.96875 C 0 15.441406 0.0507812 15.222656 0.183594 15.171875 C 0.453125 15.070312 0.625 14.324219 0.625 13.261719 C 0.625 12.542969 0.710938 12.101562 1.015625 11.261719 C 1.230469 10.671875 1.480469 10.039062 1.578125 9.855469 C 1.671875 9.671875 1.75 9.457031 1.75 9.371094 C 1.75 9.289062 1.917969 9.027344 2.125 8.792969 C 2.332031 8.558594 2.5 8.230469 2.5 8.066406 C 2.5 7.898438 2.554688 7.730469 2.621094 7.691406 C 2.6875 7.648438 2.835938 7.421875 2.945312 7.1875 C 3.058594 6.953125 3.246094 6.726562 3.367188 6.691406 C 3.488281 6.652344 3.804688 6.296875 4.066406 5.902344 C 4.671875 5.007812 5.136719 4.554688 6.035156 4 C 6.421875 3.761719 6.773438 3.480469 6.8125 3.375 C 6.90625 3.125 7.703125 2.625 8.003906 2.625 C 8.136719 2.625 8.425781 2.464844 8.652344 2.265625 C 9.144531 1.835938 9.777344 1.5 10.089844 1.5 C 10.214844 1.5 10.449219 1.410156 10.609375 1.296875 C 11.171875 0.902344 12.511719 0.578125 14.109375 0.453125 C 14.453125 0.425781 14.699219 0.335938 14.773438 0.207031 C 14.832031 0.101562 15.144531 0.03125 15.515625 0 L 16.472656 0 C 16.777344 0.0273438 17 0.0898438 17 0.183594 C 17 0.429688 17.304688 0.578125 18.152344 0.734375 C 18.546875 0.804688 19.035156 0.953125 19.242188 1.058594 C 19.445312 1.164062 19.890625 1.25 20.226562 1.25 C 20.652344 1.25 20.9375 1.328125 21.160156 1.5 C 21.332031 1.636719 21.527344 1.75 21.59375 1.75 C 21.769531 1.75 23.902344 2.871094 24.1875 3.113281 C 24.324219 3.230469 24.679688 3.484375 24.972656 3.683594 C 25.269531 3.878906 25.550781 4.101562 25.597656 4.179688 C 25.648438 4.253906 25.882812 4.449219 26.125 4.609375 C 26.367188 4.773438 26.789062 5.179688 27.0625 5.515625 C 27.335938 5.851562 27.777344 6.367188 28.039062 6.65625 C 28.800781 7.507812 30.308594 10.324219 30.613281 11.460938 C 31.007812 12.953125 31.136719 13.730469 31.238281 15.25 C 31.296875 16.179688 31.332031 16.96875 31.308594 17.003906 C 31.289062 17.042969 31.230469 17.546875 31.183594 18.128906 C 31.136719 18.757812 31.003906 19.398438 30.859375 19.707031 C 30.703125 20.035156 30.644531 20.34375 30.695312 20.542969 C 30.738281 20.726562 30.699219 21.007812 30.589844 21.210938 C 30.195312 21.972656 29.875 22.765625 29.875 22.984375 C 29.875 23.109375 29.765625 23.308594 29.632812 23.429688 C 29.5 23.550781 29.300781 23.90625 29.195312 24.21875 C 28.714844 25.628906 26 28.285156 23.859375 29.4375 C 21.238281 30.851562 20.382812 31.136719 18 31.378906 C 15.828125 31.605469 15.347656 31.621094 14.9375 31.5 Z M 21.257812 26.832031 C 21.367188 26.78125 21.59375 26.511719 21.757812 26.234375 C 21.925781 25.957031 22.261719 25.46875 22.5 25.144531 C 22.742188 24.824219 23.152344 24.25 23.414062 23.863281 C 23.675781 23.480469 24.054688 22.984375 24.257812 22.761719 C 24.464844 22.535156 24.707031 22.171875 24.800781 21.945312 C 24.894531 21.71875 25.175781 21.332031 25.421875 21.085938 C 26.1875 20.320312 26.117188 20.144531 24.28125 18.230469 C 23.40625 17.316406 22.503906 16.386719 22.28125 16.167969 C 21.765625 15.65625 21.769531 15.402344 22.3125 14.890625 C 22.554688 14.664062 22.75 14.421875 22.75 14.351562 C 22.75 14.195312 23.671875 13.039062 24.082031 12.683594 C 24.386719 12.417969 24.875 11.5625 24.875 11.292969 C 24.875 11.207031 24.75 10.996094 24.59375 10.824219 C 24.4375 10.648438 24.171875 10.332031 24 10.117188 C 23.828125 9.902344 23.5625 9.609375 23.40625 9.464844 C 23.25 9.324219 23.125 9.144531 23.125 9.070312 C 23.125 8.992188 22.886719 8.679688 22.59375 8.371094 C 21.871094 7.609375 21.109375 6.671875 20.683594 6.023438 C 20.019531 5.007812 19.972656 5 15.128906 5 C 12.375 5 10.875 5.042969 10.875 5.125 C 10.875 5.207031 12.40625 5.25 15.21875 5.253906 C 17.46875 5.253906 19.382812 5.289062 19.65625 5.335938 C 19.351562 5.292969 16.984375 5.265625 14.1875 5.28125 L 9.0625 5.3125 C 9.160156 5.296875 9.292969 5.285156 9.46875 5.273438 C 9.828125 5.253906 10.125 5.183594 10.125 5.117188 C 10.125 4.929688 8.675781 4.972656 8.515625 5.167969 C 8.355469 5.359375 8.300781 26.601562 8.464844 26.761719 C 8.515625 26.816406 8.929688 26.886719 9.375 26.914062 C 10.757812 27 21.050781 26.929688 21.257812 26.832031 Z M 12.226562 23.15625 C 12.074219 22.980469 12.046875 22.609375 12.085938 21.191406 C 12.109375 20.230469 12.183594 19.390625 12.246094 19.328125 C 12.398438 19.175781 12.738281 19.324219 12.839844 19.589844 C 12.929688 19.820312 13.347656 20.445312 13.996094 21.3125 C 14.203125 21.585938 14.4375 21.953125 14.523438 22.125 C 14.605469 22.296875 14.785156 22.527344 14.917969 22.640625 C 15.34375 22.992188 15.101562 23.203125 14.167969 23.292969 C 12.800781 23.421875 12.429688 23.394531 12.226562 23.15625 Z M 19.09375 21.378906 C 18.921875 21.242188 18.6875 20.902344 18.578125 20.628906 C 18.46875 20.351562 18.320312 20.125 18.253906 20.125 C 18.0625 20.125 17 18.445312 17 18.140625 C 17 17.925781 17.078125 17.871094 17.40625 17.863281 C 18.300781 17.835938 18.695312 17.898438 18.835938 18.101562 C 18.921875 18.21875 19.117188 18.5 19.273438 18.730469 C 19.433594 18.960938 19.707031 19.324219 19.886719 19.542969 C 20.0625 19.761719 20.3125 20.121094 20.441406 20.34375 L 20.675781 20.746094 L 20.25 21.1875 C 19.765625 21.6875 19.539062 21.726562 19.09375 21.378906 Z M 12.375 14.128906 C 12.226562 14.035156 12.1875 13.710938 12.1875 12.535156 C 12.1875 11.113281 12.195312 11.0625 12.460938 11.023438 C 12.6875 10.992188 12.808594 11.121094 13.121094 11.742188 C 13.332031 12.160156 13.558594 12.5 13.625 12.5 C 13.789062 12.5 14.496094 13.628906 14.496094 13.890625 C 14.5 14.019531 14.355469 14.121094 14.109375 14.171875 C 13.53125 14.289062 12.589844 14.265625 12.375 14.128906 Z M 18.40625 12.042969 C 18.242188 11.976562 16.636719 9.878906 16.382812 9.394531 C 16.136719 8.921875 16.285156 8.761719 16.890625 8.84375 C 17.339844 8.902344 17.550781 9.042969 18.183594 9.683594 C 18.597656 10.109375 19.046875 10.664062 19.175781 10.917969 L 19.417969 11.378906 L 19.058594 11.753906 C 18.691406 12.136719 18.667969 12.148438 18.40625 12.042969 Z M 8.75 5.625 L 8.734375 5.6875 C 8.679688 5.9375 8.648438 10.875 8.640625 15.8125 C 8.648438 10.875 8.679688 5.9375 8.734375 5.6875 C 8.738281 5.664062 8.742188 5.644531 8.75 5.625 Z M 8.75 5.625 "/>
<path style=" stroke:none;fill-rule:nonzero;fill:rgb(99.215686%,99.215686%,98.039216%);fill-opacity:1;" d="M 0 24.667969 C 0 20.632812 0.0234375 17.355469 0.0507812 17.386719 C 0.078125 17.414062 0.195312 17.96875 0.304688 18.621094 C 1.25 24.109375 5.011719 28.722656 10.203125 30.75 C 16.171875 33.085938 22.855469 31.664062 27.332031 27.101562 C 29.585938 24.804688 30.921875 22.28125 31.640625 18.9375 C 31.886719 17.804688 31.859375 14.058594 31.59375 12.8125 C 30.570312 7.953125 27.523438 3.972656 23.0625 1.667969 C 22.058594 1.148438 21.109375 0.835938 18.8125 0.265625 L 17.8125 0.015625 L 32 0 L 32 32 L 0 32 Z M 8.707031 25.90625 C 8.605469 24.8125 8.628906 6.179688 8.734375 5.6875 L 8.816406 5.3125 L 14.1875 5.28125 C 17.144531 5.265625 19.621094 5.292969 19.691406 5.34375 C 19.761719 5.394531 20.097656 5.773438 20.441406 6.183594 C 20.78125 6.597656 21.210938 7.101562 21.394531 7.308594 C 22.085938 8.085938 24.746094 11.316406 24.746094 11.375 C 24.75 11.410156 24.074219 12.273438 23.246094 13.296875 C 22.417969 14.320312 21.691406 15.253906 21.625 15.371094 C 21.542969 15.53125 21.582031 15.667969 21.78125 15.890625 C 21.933594 16.050781 22.886719 17.074219 23.902344 18.15625 C 24.917969 19.238281 25.75 20.171875 25.75 20.234375 C 25.75 20.292969 25.296875 20.953125 24.746094 21.703125 C 24.195312 22.449219 23.433594 23.484375 23.054688 24 C 22.15625 25.226562 21.691406 25.847656 21.304688 26.34375 L 20.988281 26.75 L 8.785156 26.75 Z M 15.601562 23.464844 C 15.699219 23.347656 15.367188 22.765625 14.300781 21.183594 C 12.878906 19.074219 12.867188 19.0625 12.402344 19.0625 L 11.9375 19.0625 L 11.902344 21.183594 C 11.882812 22.347656 11.894531 23.375 11.929688 23.464844 C 12.015625 23.691406 15.410156 23.695312 15.601562 23.464844 Z M 20.351562 21.496094 L 21.140625 20.75 L 20.855469 20.34375 C 20.699219 20.121094 20.191406 19.417969 19.722656 18.78125 L 18.871094 17.625 L 17.5625 17.625 C 16.839844 17.625 16.25 17.667969 16.253906 17.71875 C 16.257812 17.867188 19.398438 22.25 19.5 22.246094 C 19.535156 22.246094 19.917969 21.910156 20.351562 21.496094 Z M 15.191406 14.367188 C 15.265625 14.246094 13.664062 11.738281 13.019531 10.972656 C 12.691406 10.578125 12.078125 10.492188 11.953125 10.824219 C 11.851562 11.078125 11.855469 13.851562 11.953125 14.21875 C 12.027344 14.492188 12.078125 14.5 13.570312 14.5 C 14.511719 14.5 15.140625 14.449219 15.191406 14.367188 Z M 19.371094 11.890625 L 19.925781 11.402344 L 18.871094 10.015625 L 17.8125 8.625 L 16.703125 8.625 C 15.789062 8.625 15.609375 8.65625 15.667969 8.804688 C 15.707031 8.90625 16.335938 9.804688 17.066406 10.804688 C 18.546875 12.828125 18.390625 12.75 19.371094 11.890625 Z M 0.00390625 7.28125 L 0 0 L 7.070312 0 C 11.75 0 14.113281 0.0429688 14.0625 0.125 C 14.019531 0.195312 13.851562 0.25 13.6875 0.25 C 13.3125 0.25 12.039062 0.542969 10.921875 0.890625 C 7.976562 1.796875 4.613281 4.34375 2.847656 7 C 1.496094 9.039062 0.46875 11.621094 0.289062 13.4375 C 0.0820312 15.53125 0.0078125 13.898438 0.00390625 7.28125 Z M 0.00390625 7.28125 "/>
</g>
</svg>
