<svg xmlns="http://www.w3.org/2000/svg" width="256" height="256" viewBox="0 0 256 256">
<g>
<path d="M 119.50 252.01 C122.77,252.98 126.62,252.83 144.00,251.04 C163.05,249.08 169.91,246.80 190.89,235.50 C208.00,226.29 229.73,205.02 233.57,193.74 C234.42,191.25 235.99,188.41 237.06,187.45 C238.13,186.48 239.00,184.87 239.00,183.87 C239.00,182.14 241.57,175.78 244.73,169.69 C245.58,168.05 245.92,165.82 245.55,164.34 C245.15,162.75 245.64,160.27 246.87,157.65 C248.03,155.18 249.09,150.07 249.48,145.03 C249.85,140.38 250.30,136.33 250.48,136.03 C250.65,135.74 250.39,129.43 249.90,122.00 C249.08,109.85 248.06,103.63 244.90,91.70 C242.48,82.58 230.42,60.06 224.31,53.26 C222.21,50.93 218.70,46.82 216.50,44.14 C214.30,41.45 210.93,38.19 209.00,36.88 C207.07,35.58 205.18,34.03 204.79,33.43 C204.40,32.82 202.15,31.04 199.79,29.47 C197.43,27.89 194.60,25.84 193.50,24.90 C191.23,22.97 174.15,14.00 172.74,14.00 C172.23,14.00 170.67,13.10 169.27,12.00 C167.51,10.62 165.22,10.00 161.82,10.00 C159.11,10.00 155.56,9.31 153.93,8.46 C152.29,7.62 148.38,6.45 145.23,5.87 C138.43,4.61 136.00,3.45 136.00,1.46 C136.00,0.72 134.22,0.23 131.79,0.00 L 256.00 0.00 L 197.25 0.10 C164.70,0.16 140.06,0.57 142.00,1.02 C143.93,1.46 148.88,2.39 153.00,3.09 C157.12,3.78 163.30,5.60 166.71,7.14 C170.13,8.68 174.17,10.25 175.68,10.64 C179.29,11.54 185.18,14.98 186.73,17.10 C187.40,18.02 189.17,19.08 190.67,19.45 C193.48,20.16 195.15,21.39 207.25,31.66 C218.06,40.84 236.00,62.44 236.00,66.27 C236.00,66.73 237.09,68.70 238.41,70.66 C239.74,72.61 242.49,78.78 244.52,84.36 C246.55,89.94 248.46,95.18 248.78,96.00 C253.48,108.40 255.49,139.80 252.50,154.02 C247.38,178.33 236.41,198.67 218.63,216.82 C182.91,253.28 129.39,264.68 81.61,246.00 C39.50,229.53 10.03,192.96 2.09,147.30 L 0.21 136.50 L 0.00 256.00 L 0.00 59.17 C0.00,91.71 0.23,118.10 0.51,117.83 C0.79,117.55 1.48,113.65 2.04,109.17 C5.23,83.69 18.46,57.47 37.97,37.97 C56.29,19.65 79.19,7.49 104.00,2.91 C107.57,2.25 111.85,1.37 113.50,0.94 C115.15,0.52 90.29,0.14 58.25,0.09 L 0.00 0.00 L 124.14 -0.00 C121.15,0.26 118.65,0.81 118.18,1.65 C117.60,2.69 115.63,3.42 112.88,3.64 C100.10,4.64 89.38,7.22 84.88,10.37 C83.60,11.27 81.73,12.00 80.73,12.00 C78.23,12.00 73.16,14.70 69.22,18.14 C67.41,19.71 65.08,21.00 64.03,21.00 C61.64,21.00 55.26,25.01 54.49,27.00 C54.18,27.83 51.37,30.08 48.27,32.00 C41.09,36.45 37.36,40.06 32.54,47.23 C30.43,50.38 27.91,53.21 26.94,53.52 C25.98,53.82 24.46,55.61 23.57,57.49 C22.68,59.38 21.51,61.19 20.97,61.52 C20.44,61.85 20.00,63.20 20.00,64.52 C20.00,65.85 18.65,68.47 17.00,70.35 C15.35,72.23 14.00,74.31 14.00,74.98 C14.00,75.65 13.38,77.39 12.61,78.85 C11.85,80.31 9.83,85.37 8.11,90.10 C5.69,96.80 5.00,100.34 4.99,106.10 C4.99,114.60 3.62,120.55 1.48,121.37 C0.41,121.78 0.00,123.54 0.00,127.75 C0.00,132.43 0.41,133.91 2.12,135.37 C3.99,136.98 4.16,137.85 3.58,143.01 C3.21,146.22 3.33,149.08 3.83,149.39 C4.33,149.70 5.03,151.88 5.39,154.23 C6.15,159.15 10.42,172.25 12.55,176.15 C13.35,177.61 14.00,179.46 14.00,180.25 C14.00,181.04 15.57,183.31 17.50,185.30 C19.42,187.28 21.00,189.83 21.00,190.97 C21.00,193.12 24.88,200.01 28.05,203.50 C31.77,207.59 36.60,212.80 39.72,216.10 C46.99,223.77 62.15,235.00 65.23,235.00 C65.93,235.00 68.69,236.56 71.37,238.46 C74.04,240.36 79.22,242.98 82.86,244.30 C86.51,245.61 91.07,247.26 93.00,247.97 C94.93,248.68 101.00,249.68 106.50,250.19 C112.00,250.70 117.85,251.52 119.50,252.01 ZM 170.07 214.65 C168.41,215.43 86.07,215.99 75.00,215.30 C71.43,215.08 68.14,214.54 67.71,214.10 C66.41,212.81 66.84,42.89 68.14,41.33 C69.42,39.79 81.00,39.45 81.00,40.95 C81.00,41.47 78.64,42.03 75.76,42.20 C70.83,42.48 70.47,42.68 69.87,45.50 C69.03,49.46 68.83,198.54 69.65,207.25 L 70.29 214.00 L 167.91 214.00 L 170.44 210.75 C173.54,206.77 177.24,201.81 184.44,192.00 C187.46,187.88 193.55,179.60 197.97,173.62 C202.39,167.64 206.00,162.35 206.00,161.87 C206.00,161.39 199.35,153.91 191.22,145.25 C183.10,136.59 175.46,128.42 174.26,127.11 C172.66,125.35 172.33,124.25 173.01,122.98 C173.52,122.03 179.35,114.56 185.97,106.38 C192.58,98.19 197.99,91.28 197.98,91.00 C197.96,90.52 176.68,64.70 171.17,58.48 C169.70,56.82 166.26,52.77 163.52,49.48 C160.78,46.19 158.08,43.17 157.52,42.77 C156.96,42.36 140.86,42.02 121.75,42.02 C99.26,42.01 87.00,41.65 87.00,41.00 C87.00,40.35 99.01,40.00 121.04,40.00 C159.79,40.00 160.16,40.07 165.47,48.18 C168.88,53.38 174.97,60.88 180.75,66.98 C183.09,69.45 185.00,71.95 185.00,72.55 C185.00,73.15 186.01,74.58 187.25,75.72 C188.49,76.87 190.62,79.21 192.00,80.94 C193.38,82.66 195.51,85.20 196.75,86.58 C197.99,87.96 199.00,89.65 199.00,90.33 C199.00,92.49 195.10,99.34 192.66,101.46 C189.39,104.31 182.00,113.56 182.00,114.81 C182.00,115.37 180.43,117.32 178.50,119.14 C174.16,123.23 174.11,125.26 178.25,129.33 C180.04,131.09 187.24,138.52 194.25,145.83 C208.95,161.16 209.51,162.56 203.39,168.68 C201.40,170.66 199.16,173.76 198.41,175.56 C197.66,177.36 195.71,180.29 194.07,182.08 C192.44,183.87 189.40,187.85 187.31,190.92 C185.23,193.99 181.95,198.60 180.01,201.17 C178.08,203.74 175.41,207.66 174.07,209.88 C172.74,212.10 170.94,214.25 170.07,214.65 ZM 124.81 187.73 C123.29,189.56 96.14,189.54 95.44,187.71 C95.17,187.01 95.07,178.79 95.22,169.46 L 95.50 152.50 L 99.23 152.50 C102.94,152.50 103.02,152.59 114.41,169.48 C122.95,182.13 125.60,186.78 124.81,187.73 ZM 162.81 171.98 C159.34,175.27 156.27,177.97 156.00,177.98 C155.19,177.99 130.06,142.95 130.02,141.75 C130.01,141.34 134.72,141.00 140.49,141.00 L 150.98 141.00 L 157.78 150.25 C161.52,155.34 165.60,160.96 166.85,162.74 L 169.13 165.99 ZM 121.53 114.95 C121.13,115.59 116.08,116.00 108.56,116.00 C96.62,116.00 96.21,115.93 95.63,113.75 C94.84,110.81 94.82,88.63 95.61,86.58 C96.62,83.95 101.52,84.64 104.17,87.79 C109.31,93.90 122.14,113.97 121.53,114.95 ZM 154.96 95.14 C154.48,95.56 154.04,95.95 153.62,96.32 C151.25,98.43 149.81,99.71 148.38,99.71 C145.96,99.70 143.54,96.00 136.54,86.44 C130.69,78.44 125.65,71.25 125.34,70.45 C124.88,69.25 126.32,69.00 133.64,69.00 L 142.50 69.00 L 150.96 80.12 L 159.42 91.23 ZM 97.82 185.25 C99.45,187.16 102.42,187.37 113.34,186.34 C120.81,185.63 122.76,183.94 119.35,181.12 C118.27,180.23 116.84,178.38 116.18,177.00 C115.51,175.62 113.62,172.70 111.97,170.50 C106.79,163.57 103.43,158.56 102.73,156.73 C101.90,154.58 99.20,153.40 97.96,154.64 C97.46,155.14 96.89,161.83 96.69,169.52 C96.39,180.86 96.60,183.83 97.82,185.25 ZM 152.75 171.02 C156.30,173.81 158.12,173.51 162.01,169.49 L 165.42 165.98 L 163.54 162.74 C162.51,160.96 160.51,158.08 159.08,156.34 C157.66,154.60 155.47,151.68 154.20,149.84 C152.94,148.00 151.37,145.74 150.70,144.82 C149.55,143.20 146.41,142.68 139.25,142.90 C136.63,142.98 136.00,143.41 136.00,145.14 C136.00,147.55 144.51,161.00 146.03,161.00 C146.57,161.00 147.74,162.81 148.62,165.02 C149.51,167.23 151.37,169.93 152.75,171.02 ZM 99.00 113.02 C100.72,114.11 108.26,114.30 112.88,113.38 C114.85,112.98 115.99,112.15 115.98,111.12 C115.96,109.03 110.30,100.00 109.01,100.00 C108.47,100.00 106.65,97.27 104.97,93.94 C102.46,88.96 101.51,87.93 99.70,88.19 C97.57,88.49 97.50,88.90 97.50,100.29 C97.50,109.68 97.81,112.27 99.00,113.02 ZM 147.26 96.34 C149.34,97.18 149.53,97.10 152.48,94.02 L 155.34 91.04 L 153.42 87.34 C152.36,85.31 148.78,80.87 145.46,77.48 C140.41,72.33 138.72,71.23 135.14,70.75 C130.27,70.09 129.08,71.39 131.07,75.17 C133.09,79.02 145.93,95.80 147.26,96.34 Z" fill="rgb(234,151,33)"/>
<path d="M 144.83 0.71 L 150.50 2.12 C168.88,6.68 176.46,9.18 184.50,13.34 C220.18,31.78 244.57,63.63 252.76,102.50 C254.86,112.48 255.10,142.44 253.14,151.50 C252.63,153.88 252.07,156.20 251.48,158.48 C251.84,157.01 252.18,155.52 252.50,154.02 C255.49,139.80 253.48,108.40 248.78,96.00 C248.46,95.18 246.55,89.94 244.52,84.36 C242.49,78.78 239.74,72.61 238.41,70.66 C237.09,68.70 236.00,66.73 236.00,66.27 C236.00,62.44 218.06,40.84 207.25,31.66 C195.15,21.39 193.48,20.16 190.67,19.45 C189.17,19.08 187.40,18.02 186.73,17.10 C185.18,14.98 179.29,11.54 175.68,10.64 C174.17,10.25 170.13,8.68 166.71,7.14 C163.30,5.60 157.12,3.78 153.00,3.09 C148.88,2.39 143.93,1.46 142.00,1.02 C141.54,0.91 142.57,0.81 144.83,0.71 ZM 0.00 59.17 L 0.00 0.00 L 0.03 58.25 C0.05,98.45 0.41,115.66 1.30,114.27 C0.97,116.28 0.67,117.66 0.51,117.83 C0.23,118.10 0.00,91.71 0.00,59.17 ZM 17.86 64.05 C19.43,61.28 21.08,58.59 22.79,56.00 C26.90,49.81 32.10,43.69 37.98,37.95 L 37.97 37.97 C30.19,45.75 23.40,54.60 17.86,64.05 ZM 66.53 16.38 C73.50,12.40 80.58,9.21 87.39,7.11 C89.22,6.54 91.10,5.99 92.96,5.48 C83.77,8.07 74.91,11.73 66.53,16.38 ZM 0.21 136.50 L 1.28 142.68 C0.86,140.60 0.53,139.21 0.41,139.08 C0.33,139.00 0.25,142.45 0.19,148.43 ZM 96.38 4.57 C101.32,3.30 105.78,2.35 108.28,2.08 C106.88,2.36 105.39,2.65 104.00,2.91 C101.44,3.38 98.90,3.94 96.38,4.57 ZM 2.53 105.73 C3.11,101.33 4.25,96.45 5.86,91.34 C4.42,96.12 3.30,100.93 2.53,105.73 ZM 235.20 196.34 C230.54,203.54 225.06,210.30 218.65,216.82 C214.65,220.90 210.42,224.66 206.01,228.11 C210.42,224.66 214.64,220.90 218.63,216.82 C225.02,210.30 230.52,203.51 235.20,196.34 ZM 112.29 1.23 C112.38,1.16 112.45,1.08 112.50,1.00 C112.57,0.88 112.00,0.77 110.79,0.67 C112.90,0.76 113.87,0.85 113.50,0.94 C113.19,1.03 112.77,1.12 112.29,1.23 Z" fill="rgb(241,195,122)"/>
<path d="M 119.50 252.01 C117.85,251.52 112.00,250.70 106.50,250.19 C101.00,249.68 94.93,248.68 93.00,247.97 C91.07,247.26 86.51,245.61 82.86,244.30 C79.22,242.98 74.04,240.36 71.37,238.46 C68.69,236.56 65.93,235.00 65.23,235.00 C62.15,235.00 46.99,223.77 39.72,216.10 C36.60,212.80 31.77,207.59 28.05,203.50 C24.88,200.01 21.00,193.12 21.00,190.97 C21.00,189.83 19.42,187.28 17.50,185.30 C15.57,183.31 14.00,181.04 14.00,180.25 C14.00,179.46 13.35,177.61 12.55,176.15 C10.42,172.25 6.15,159.15 5.39,154.23 C5.03,151.88 4.33,149.70 3.83,149.39 C3.33,149.08 3.21,146.22 3.58,143.01 C4.16,137.85 3.99,136.98 2.12,135.37 C0.41,133.91 0.00,132.43 0.00,127.75 C0.00,123.54 0.41,121.78 1.48,121.37 C3.62,120.55 4.99,114.60 4.99,106.10 C5.00,100.34 5.69,96.80 8.11,90.10 C9.83,85.37 11.85,80.31 12.61,78.85 C13.38,77.39 14.00,75.65 14.00,74.98 C14.00,74.31 15.35,72.23 17.00,70.35 C18.65,68.47 20.00,65.85 20.00,64.52 C20.00,63.20 20.44,61.85 20.97,61.52 C21.51,61.19 22.68,59.38 23.57,57.49 C24.46,55.61 25.98,53.82 26.94,53.52 C27.91,53.21 30.43,50.38 32.54,47.23 C37.36,40.06 41.09,36.45 48.27,32.00 C51.37,30.08 54.18,27.83 54.49,27.00 C55.26,25.01 61.64,21.00 64.03,21.00 C65.08,21.00 67.41,19.71 69.22,18.14 C73.16,14.70 78.23,12.00 80.73,12.00 C81.73,12.00 83.60,11.27 84.88,10.37 C89.38,7.22 100.10,4.64 112.88,3.64 C115.63,3.42 117.60,2.69 118.18,1.65 C118.65,0.81 121.15,0.26 124.14,0.00 L 131.79 0.00 C134.22,0.23 136.00,0.72 136.00,1.46 C136.00,3.45 138.43,4.61 145.23,5.87 C148.38,6.45 152.29,7.62 153.93,8.46 C155.56,9.31 159.11,10.00 161.82,10.00 C165.22,10.00 167.51,10.62 169.27,12.00 C170.67,13.10 172.23,14.00 172.74,14.00 C174.15,14.00 191.23,22.97 193.50,24.90 C194.60,25.84 197.43,27.89 199.79,29.47 C202.15,31.04 204.40,32.82 204.79,33.43 C205.18,34.03 207.07,35.58 209.00,36.88 C210.93,38.19 214.30,41.45 216.50,44.14 C218.70,46.82 222.21,50.93 224.31,53.26 C230.42,60.06 242.48,82.58 244.90,91.70 C248.06,103.63 249.08,109.85 249.90,122.00 C250.39,129.43 250.65,135.74 250.48,136.03 C250.30,136.33 249.85,140.38 249.48,145.03 C249.09,150.07 248.03,155.18 246.87,157.65 C245.64,160.27 245.15,162.75 245.55,164.34 C245.92,165.82 245.58,168.05 244.73,169.69 C241.57,175.78 239.00,182.14 239.00,183.87 C239.00,184.87 238.13,186.48 237.06,187.45 C235.99,188.41 234.42,191.25 233.57,193.74 C229.73,205.02 208.00,226.29 190.89,235.50 C169.91,246.80 163.05,249.08 144.00,251.04 C126.62,252.83 122.77,252.98 119.50,252.01 ZM 170.07 214.65 C170.94,214.25 172.74,212.10 174.07,209.88 C175.41,207.66 178.08,203.74 180.01,201.17 C181.95,198.60 185.23,193.99 187.31,190.92 C189.40,187.85 192.44,183.87 194.07,182.08 C195.71,180.29 197.66,177.36 198.41,175.56 C199.16,173.76 201.40,170.66 203.39,168.68 C209.51,162.56 208.95,161.16 194.25,145.83 C187.24,138.52 180.04,131.09 178.25,129.33 C174.11,125.26 174.16,123.23 178.50,119.14 C180.43,117.32 182.00,115.37 182.00,114.81 C182.00,113.56 189.39,104.31 192.66,101.46 C195.10,99.34 199.00,92.49 199.00,90.33 C199.00,89.65 197.99,87.96 196.75,86.58 C195.51,85.20 193.38,82.66 192.00,80.94 C190.62,79.21 188.49,76.87 187.25,75.72 C186.01,74.58 185.00,73.15 185.00,72.55 C185.00,71.95 183.09,69.45 180.75,66.98 C174.97,60.88 168.88,53.38 165.47,48.18 C160.16,40.07 159.79,40.00 121.04,40.00 C99.01,40.00 87.00,40.35 87.00,41.00 C87.00,41.65 99.26,42.01 121.75,42.02 C139.74,42.02 155.05,42.32 157.26,42.69 C154.80,42.33 135.87,42.13 113.51,42.26 L 72.51 42.49 C73.29,42.36 74.33,42.28 75.76,42.20 C78.64,42.03 81.00,41.47 81.00,40.95 C81.00,39.45 69.42,39.79 68.14,41.33 C66.84,42.89 66.41,212.81 67.71,214.10 C68.14,214.54 71.43,215.08 75.00,215.30 C86.07,215.99 168.41,215.43 170.07,214.65 ZM 97.82 185.25 C96.60,183.83 96.39,180.86 96.69,169.52 C96.89,161.83 97.46,155.14 97.96,154.64 C99.20,153.40 101.90,154.58 102.73,156.73 C103.43,158.56 106.79,163.57 111.97,170.50 C113.62,172.70 115.51,175.62 116.18,177.00 C116.84,178.38 118.27,180.23 119.35,181.12 C122.76,183.94 120.81,185.63 113.34,186.34 C102.42,187.37 99.45,187.16 97.82,185.25 ZM 152.75 171.02 C151.37,169.93 149.51,167.23 148.62,165.02 C147.74,162.81 146.57,161.00 146.03,161.00 C144.51,161.00 136.00,147.55 136.00,145.14 C136.00,143.41 136.63,142.98 139.25,142.90 C146.41,142.68 149.55,143.20 150.70,144.82 C151.37,145.74 152.94,148.00 154.20,149.84 C155.47,151.68 157.66,154.60 159.08,156.34 C160.51,158.08 162.51,160.96 163.54,162.74 L 165.42 165.98 L 162.01 169.49 C158.12,173.51 156.30,173.81 152.75,171.02 ZM 99.00 113.02 C97.81,112.27 97.50,109.68 97.50,100.29 C97.50,88.90 97.57,88.49 99.70,88.19 C101.51,87.93 102.46,88.96 104.97,93.94 C106.65,97.27 108.47,100.00 109.01,100.00 C110.30,100.00 115.96,109.03 115.98,111.12 C115.99,112.15 114.85,112.98 112.88,113.38 C108.26,114.30 100.72,114.11 99.00,113.02 ZM 147.26 96.34 C145.93,95.80 133.09,79.02 131.07,75.17 C129.08,71.39 130.27,70.09 135.14,70.75 C138.72,71.23 140.41,72.33 145.46,77.48 C148.78,80.87 152.36,85.31 153.42,87.34 L 155.34 91.04 L 152.48 94.02 C149.53,97.10 149.34,97.18 147.26,96.34 ZM 69.99 45.00 L 69.88 45.50 C69.45,47.50 69.18,87.00 69.14,126.50 C69.18,87.00 69.45,47.51 69.87,45.50 C69.91,45.32 69.95,45.16 69.99,45.00 Z" fill="rgb(253,145,2)"/>
<path d="M -0.00 197.33 C-0.00,165.07 0.18,138.85 0.41,139.08 C0.63,139.31 1.55,143.76 2.44,148.96 C10.00,192.88 40.10,229.77 81.61,246.00 C129.39,264.68 182.83,253.30 218.65,216.82 C236.69,198.45 247.36,178.24 253.14,151.50 C255.10,142.44 254.86,112.48 252.76,102.50 C244.57,63.63 220.18,31.78 184.50,13.34 C176.46,9.18 168.88,6.68 150.50,2.12 L 142.50 0.13 L 199.25 0.07 L 256.00 0.00 L 256.00 128.00 L 256.00 256.00 L 128.00 256.00 L 0.00 256.00 L -0.00 197.33 ZM 69.65 207.25 C68.83,198.51 69.03,49.44 69.88,45.50 L 70.52 42.50 L 113.51 42.26 C137.15,42.13 156.96,42.35 157.52,42.76 C158.08,43.17 160.78,46.19 163.52,49.48 C166.26,52.77 169.70,56.82 171.17,58.48 C176.68,64.70 197.96,90.52 197.98,91.00 C197.99,91.28 192.58,98.19 185.97,106.38 C179.35,114.56 173.52,122.03 173.01,122.98 C172.33,124.25 172.66,125.35 174.26,127.11 C175.46,128.42 183.10,136.59 191.22,145.25 C199.35,153.91 206.00,161.39 206.00,161.87 C206.00,162.35 202.39,167.64 197.97,173.62 C193.55,179.60 187.46,187.88 184.44,192.00 C177.24,201.81 173.54,206.77 170.44,210.75 L 167.91 214.00 L 119.10 214.00 L 70.29 214.00 L 69.65 207.25 ZM 124.81 187.73 C125.60,186.78 122.95,182.13 114.41,169.48 C103.02,152.59 102.94,152.50 99.23,152.50 L 95.50 152.50 L 95.22 169.46 C95.07,178.79 95.17,187.01 95.44,187.71 C96.14,189.54 123.29,189.56 124.81,187.73 ZM 162.81 171.98 L 169.13 165.99 L 166.85 162.74 C165.60,160.96 161.52,155.34 157.78,150.25 L 150.98 141.00 L 140.49 141.00 C134.72,141.00 130.01,141.34 130.02,141.75 C130.06,142.95 155.19,177.99 156.00,177.98 C156.27,177.97 159.34,175.27 162.81,171.98 ZM 121.53 114.95 C122.14,113.97 109.31,93.90 104.17,87.79 C101.52,84.64 96.62,83.95 95.61,86.58 C94.82,88.63 94.84,110.81 95.63,113.75 C96.21,115.93 96.62,116.00 108.56,116.00 C116.08,116.00 121.13,115.59 121.53,114.95 ZM 154.96 95.14 L 159.42 91.23 L 150.96 80.12 L 142.50 69.00 L 133.64 69.00 C126.32,69.00 124.88,69.25 125.34,70.45 C125.65,71.25 130.69,78.44 136.54,86.44 C148.38,102.61 147.11,102.01 154.96,95.14 ZM 0.03 58.25 L 0.00 0.00 L 56.56 0.00 C94.01,0.00 112.91,0.34 112.50,1.00 C112.16,1.55 110.81,2.00 109.50,2.00 C106.49,2.00 96.32,4.35 87.39,7.11 C63.80,14.39 36.90,34.75 22.79,56.00 C11.97,72.31 3.76,92.96 2.32,107.50 C0.67,124.25 0.06,111.18 0.03,58.25 Z" fill="rgb(253,253,250)"/>
</g>
</svg>